<?xml version="1.0" encoding="UTF-8" standalone="no"?>
<svg
   version="1.0"
   width="347.99997pt"
   height="95pt"
   viewBox="0 0 347.99997 95"
   preserveAspectRatio="xMidYMid"
   id="svg76"
   xmlns="http://www.w3.org/2000/svg"
   xmlns:svg="http://www.w3.org/2000/svg">
  <defs
     id="defs80" />
  <g
     transform="matrix(0.1,0,0,-0.1,-76.000002,288.99999)"
     fill="#e4e4e7"
     stroke="none"
     id="g74">
    <path
       d="m 3400,2840 v -50 h 370 370 l 2,-377 3,-378 48,-3 47,-3 v 430 431 h -420 -420 z"
       id="path42" />
    <path
       d="m 760,2365 v -425 h 420 420 v 50 50 H 1230 860 v 375 375 h -50 -50 z"
       id="path44" />
    <path
       d="m 1230,2570 c 0,-29 1,-30 49,-30 69,0 101,-14 101,-44 0,-30 -16,-36 -91,-36 h -59 v -95 -95 h 30 30 v 64 63 l 51,5 c 68,7 102,39 102,98 0,69 -50,99 -165,100 -47,0 -48,-1 -48,-30 z"
       id="path46" />
    <path
       d="m 1880,2570 v -30 h 96 95 l -3,28 -3,27 -92,3 -93,3 z"
       id="path48" />
    <path
       d="m 2130,2590 c 0,-8 70,-196 112,-300 9,-23 15,-13 59,100 27,69 49,128 49,133 0,4 -13,7 -29,7 -27,0 -31,-5 -47,-55 -10,-30 -21,-52 -25,-48 -3,5 -14,33 -24,63 -28,88 -42,110 -70,110 -14,0 -25,-5 -25,-10 z"
       id="path50" />
    <path
       d="m 2420,2435 v -165 h 75 75 v 30 c 0,29 -2,30 -45,30 -45,0 -45,0 -45,35 v 35 h 65 65 v 30 30 h -65 -65 v 40 40 h 45 c 43,0 45,1 45,30 v 30 h -75 -75 z"
       id="path52" />
    <path
       d="m 2667,2593 c -4,-3 -7,-60 -7,-125 v -118 h 30 c 29,0 29,0 32,68 l 3,67 74,-107 c 70,-101 77,-108 108,-108 h 33 l -2,163 -3,162 h -30 -30 l -3,-104 -3,-104 -75,107 c -58,82 -80,106 -98,106 -12,0 -26,-3 -29,-7 z"
       id="path54" />
    <path
       d="m 3000,2570 v -30 h 96 95 l -3,28 -3,27 -92,3 -93,3 z"
       id="path56" />
    <path
       d="m 3430,2481 c 0,-113 -1,-121 -22,-135 -12,-9 -32,-16 -43,-16 -43,0 -50,15 -55,112 -5,93 -5,93 -32,96 l -28,3 v -103 c 0,-102 1,-105 30,-133 58,-56 174,-38 201,31 5,15 8,79 7,143 l -3,116 -27,3 -28,3 z"
       id="path58" />
    <path
       d="m 3550,2570 c 0,-30 0,-30 56,-30 67,0 94,-13 94,-44 0,-30 -16,-36 -91,-36 h -59 v -95 -95 h 30 30 v 65 c 0,57 2,65 18,65 14,0 27,-18 47,-65 26,-62 29,-65 61,-65 19,0 34,2 34,5 0,2 -14,34 -32,69 l -31,64 28,24 c 22,20 28,33 28,66 0,71 -48,102 -160,102 -52,0 -53,0 -53,-30 z"
       id="path60" />
    <path
       d="m 3830,2435 v -165 h 75 75 v 30 c 0,29 -2,30 -45,30 -45,0 -45,0 -45,35 v 35 h 65 65 v 30 30 h -65 -65 v 40 40 h 45 c 43,0 45,1 45,30 v 30 h -75 -75 z"
       id="path62" />
    <path
       d="m 999,2561 c -55,-56 -22,-142 61,-156 49,-8 64,-40 31,-66 -12,-10 -21,-29 -21,-44 0,-25 3,-27 28,-21 40,10 72,51 72,92 0,46 -45,94 -87,94 -51,0 -73,48 -33,70 21,11 60,-2 60,-20 0,-6 14,-10 30,-10 32,0 36,9 18,43 -18,35 -40,46 -86,47 -35,0 -49,-6 -73,-29 z"
       id="path64" />
    <path
       d="m 1573,2570 c -66,-40 -89,-136 -51,-209 34,-65 67,-86 138,-86 94,0 151,57 152,153 0,63 -25,116 -67,142 -43,27 -128,27 -172,0 z m 155,-66 c 16,-18 22,-38 22,-73 0,-64 -32,-101 -87,-101 -51,0 -80,22 -93,71 -28,104 89,181 158,103 z"
       id="path66" />
    <path
       d="m 1637,2453 c -13,-12 -7,-41 10,-47 21,-8 48,17 40,38 -6,16 -38,22 -50,9 z"
       id="path68" />
    <path
       d="m 1940,2375 v -105 h 30 30 v 105 105 h -30 -30 z"
       id="path70" />
    <path
       d="m 3060,2375 v -105 h 30 30 v 105 105 h -30 -30 z"
       id="path72" />
  </g>
</svg>
